<mxfile host="app.diagrams.net" modified="2023-11-29T21:19:30.043Z" agent="Mozilla/5.0 (Windows NT 10.0; Win64; x64) AppleWebKit/537.36 (KHTML, like Gecko) Chrome/119.0.0.0 Safari/537.36 Edg/119.0.0.0" etag="CjK5zNZtHqsPjXpmlZHG" version="22.1.5" type="device">
  <diagram name="Page-1" id="1rY_60Q4n1hjQ1TmzZvg">
    <mxGraphModel dx="2580" dy="2246" grid="1" gridSize="10" guides="1" tooltips="1" connect="1" arrows="1" fold="1" page="1" pageScale="1" pageWidth="850" pageHeight="1100" math="0" shadow="0">
      <root>
        <mxCell id="0" />
        <mxCell id="1" parent="0" />
        <mxCell id="N1zZDSGnp2hzUXf2zIer-5" value="Item" style="swimlane;fontStyle=0;childLayout=stackLayout;horizontal=1;startSize=30;horizontalStack=0;resizeParent=1;resizeParentMax=0;resizeLast=0;collapsible=1;marginBottom=0;whiteSpace=wrap;html=1;" parent="1" vertex="1">
          <mxGeometry x="550" y="-970" width="140" height="210" as="geometry" />
        </mxCell>
        <mxCell id="N1zZDSGnp2hzUXf2zIer-6" value="&lt;u&gt;itemId&amp;nbsp;&lt;/u&gt;" style="text;strokeColor=none;fillColor=none;align=left;verticalAlign=middle;spacingLeft=4;spacingRight=4;overflow=hidden;points=[[0,0.5],[1,0.5]];portConstraint=eastwest;rotatable=0;whiteSpace=wrap;html=1;" parent="N1zZDSGnp2hzUXf2zIer-5" vertex="1">
          <mxGeometry y="30" width="140" height="30" as="geometry" />
        </mxCell>
        <mxCell id="N1zZDSGnp2hzUXf2zIer-7" value="productId" style="text;strokeColor=none;fillColor=none;align=left;verticalAlign=middle;spacingLeft=4;spacingRight=4;overflow=hidden;points=[[0,0.5],[1,0.5]];portConstraint=eastwest;rotatable=0;whiteSpace=wrap;html=1;" parent="N1zZDSGnp2hzUXf2zIer-5" vertex="1">
          <mxGeometry y="60" width="140" height="30" as="geometry" />
        </mxCell>
        <mxCell id="N1zZDSGnp2hzUXf2zIer-8" value="dateBought" style="text;strokeColor=none;fillColor=none;align=left;verticalAlign=middle;spacingLeft=4;spacingRight=4;overflow=hidden;points=[[0,0.5],[1,0.5]];portConstraint=eastwest;rotatable=0;whiteSpace=wrap;html=1;" parent="N1zZDSGnp2hzUXf2zIer-5" vertex="1">
          <mxGeometry y="90" width="140" height="30" as="geometry" />
        </mxCell>
        <mxCell id="qZLmWWEaJiym7y35f2Qr-16" value="dateSold" style="text;strokeColor=none;fillColor=none;align=left;verticalAlign=middle;spacingLeft=4;spacingRight=4;overflow=hidden;points=[[0,0.5],[1,0.5]];portConstraint=eastwest;rotatable=0;whiteSpace=wrap;html=1;" vertex="1" parent="N1zZDSGnp2hzUXf2zIer-5">
          <mxGeometry y="120" width="140" height="30" as="geometry" />
        </mxCell>
        <mxCell id="qZLmWWEaJiym7y35f2Qr-17" value="[age]" style="text;strokeColor=none;fillColor=none;align=left;verticalAlign=middle;spacingLeft=4;spacingRight=4;overflow=hidden;points=[[0,0.5],[1,0.5]];portConstraint=eastwest;rotatable=0;whiteSpace=wrap;html=1;" vertex="1" parent="N1zZDSGnp2hzUXf2zIer-5">
          <mxGeometry y="150" width="140" height="30" as="geometry" />
        </mxCell>
        <mxCell id="qZLmWWEaJiym7y35f2Qr-18" value="isSold" style="text;strokeColor=none;fillColor=none;align=left;verticalAlign=middle;spacingLeft=4;spacingRight=4;overflow=hidden;points=[[0,0.5],[1,0.5]];portConstraint=eastwest;rotatable=0;whiteSpace=wrap;html=1;" vertex="1" parent="N1zZDSGnp2hzUXf2zIer-5">
          <mxGeometry y="180" width="140" height="30" as="geometry" />
        </mxCell>
        <mxCell id="N1zZDSGnp2hzUXf2zIer-9" value="Employee" style="swimlane;fontStyle=0;childLayout=stackLayout;horizontal=1;startSize=30;horizontalStack=0;resizeParent=1;resizeParentMax=0;resizeLast=0;collapsible=1;marginBottom=0;whiteSpace=wrap;html=1;" parent="1" vertex="1">
          <mxGeometry x="273.75" y="-1000" width="140" height="490" as="geometry" />
        </mxCell>
        <mxCell id="N1zZDSGnp2hzUXf2zIer-10" value="&lt;u&gt;employeeId&lt;/u&gt;" style="text;strokeColor=none;fillColor=none;align=left;verticalAlign=middle;spacingLeft=4;spacingRight=4;overflow=hidden;points=[[0,0.5],[1,0.5]];portConstraint=eastwest;rotatable=0;whiteSpace=wrap;html=1;" parent="N1zZDSGnp2hzUXf2zIer-9" vertex="1">
          <mxGeometry y="30" width="140" height="30" as="geometry" />
        </mxCell>
        <mxCell id="N1zZDSGnp2hzUXf2zIer-11" value="name" style="text;strokeColor=none;fillColor=none;align=left;verticalAlign=middle;spacingLeft=4;spacingRight=4;overflow=hidden;points=[[0,0.5],[1,0.5]];portConstraint=eastwest;rotatable=0;whiteSpace=wrap;html=1;" parent="N1zZDSGnp2hzUXf2zIer-9" vertex="1">
          <mxGeometry y="60" width="140" height="30" as="geometry" />
        </mxCell>
        <mxCell id="N1zZDSGnp2hzUXf2zIer-12" value="surname" style="text;strokeColor=none;fillColor=none;align=left;verticalAlign=middle;spacingLeft=4;spacingRight=4;overflow=hidden;points=[[0,0.5],[1,0.5]];portConstraint=eastwest;rotatable=0;whiteSpace=wrap;html=1;" parent="N1zZDSGnp2hzUXf2zIer-9" vertex="1">
          <mxGeometry y="90" width="140" height="30" as="geometry" />
        </mxCell>
        <mxCell id="N1zZDSGnp2hzUXf2zIer-74" value="password" style="text;strokeColor=none;fillColor=none;align=left;verticalAlign=middle;spacingLeft=4;spacingRight=4;overflow=hidden;points=[[0,0.5],[1,0.5]];portConstraint=eastwest;rotatable=0;whiteSpace=wrap;html=1;" parent="N1zZDSGnp2hzUXf2zIer-9" vertex="1">
          <mxGeometry y="120" width="140" height="30" as="geometry" />
        </mxCell>
        <mxCell id="qZLmWWEaJiym7y35f2Qr-1" value="email" style="text;strokeColor=none;fillColor=none;align=left;verticalAlign=middle;spacingLeft=4;spacingRight=4;overflow=hidden;points=[[0,0.5],[1,0.5]];portConstraint=eastwest;rotatable=0;whiteSpace=wrap;html=1;" vertex="1" parent="N1zZDSGnp2hzUXf2zIer-9">
          <mxGeometry y="150" width="140" height="30" as="geometry" />
        </mxCell>
        <mxCell id="qZLmWWEaJiym7y35f2Qr-2" value="salary" style="text;strokeColor=none;fillColor=none;align=left;verticalAlign=middle;spacingLeft=4;spacingRight=4;overflow=hidden;points=[[0,0.5],[1,0.5]];portConstraint=eastwest;rotatable=0;whiteSpace=wrap;html=1;" vertex="1" parent="N1zZDSGnp2hzUXf2zIer-9">
          <mxGeometry y="180" width="140" height="30" as="geometry" />
        </mxCell>
        <mxCell id="qZLmWWEaJiym7y35f2Qr-3" value="workEntranceDate" style="text;strokeColor=none;fillColor=none;align=left;verticalAlign=middle;spacingLeft=4;spacingRight=4;overflow=hidden;points=[[0,0.5],[1,0.5]];portConstraint=eastwest;rotatable=0;whiteSpace=wrap;html=1;" vertex="1" parent="N1zZDSGnp2hzUXf2zIer-9">
          <mxGeometry y="210" width="140" height="30" as="geometry" />
        </mxCell>
        <mxCell id="qZLmWWEaJiym7y35f2Qr-4" value="birthDate" style="text;strokeColor=none;fillColor=none;align=left;verticalAlign=middle;spacingLeft=4;spacingRight=4;overflow=hidden;points=[[0,0.5],[1,0.5]];portConstraint=eastwest;rotatable=0;whiteSpace=wrap;html=1;" vertex="1" parent="N1zZDSGnp2hzUXf2zIer-9">
          <mxGeometry y="240" width="140" height="30" as="geometry" />
        </mxCell>
        <mxCell id="qZLmWWEaJiym7y35f2Qr-5" value="phoneNumber&amp;nbsp;" style="text;strokeColor=none;fillColor=none;align=left;verticalAlign=middle;spacingLeft=4;spacingRight=4;overflow=hidden;points=[[0,0.5],[1,0.5]];portConstraint=eastwest;rotatable=0;whiteSpace=wrap;html=1;" vertex="1" parent="N1zZDSGnp2hzUXf2zIer-9">
          <mxGeometry y="270" width="140" height="30" as="geometry" />
        </mxCell>
        <mxCell id="qZLmWWEaJiym7y35f2Qr-7" value="[age]" style="text;strokeColor=none;fillColor=none;align=left;verticalAlign=middle;spacingLeft=4;spacingRight=4;overflow=hidden;points=[[0,0.5],[1,0.5]];portConstraint=eastwest;rotatable=0;whiteSpace=wrap;html=1;" vertex="1" parent="N1zZDSGnp2hzUXf2zIer-9">
          <mxGeometry y="300" width="140" height="30" as="geometry" />
        </mxCell>
        <mxCell id="qZLmWWEaJiym7y35f2Qr-8" value="&lt;p class=&quot;MsoNormal&quot;&gt;{address&lt;br/&gt;(country, city, street, houseNumber, zipCode)}&lt;/p&gt;" style="text;strokeColor=none;fillColor=none;align=left;verticalAlign=middle;spacingLeft=4;spacingRight=4;overflow=hidden;points=[[0,0.5],[1,0.5]];portConstraint=eastwest;rotatable=0;whiteSpace=wrap;html=1;" vertex="1" parent="N1zZDSGnp2hzUXf2zIer-9">
          <mxGeometry y="330" width="140" height="90" as="geometry" />
        </mxCell>
        <mxCell id="qZLmWWEaJiym7y35f2Qr-10" value="&lt;p class=&quot;MsoNormal&quot;&gt;{education&lt;br/&gt;(beginYear, endYear, average)}&lt;/p&gt;" style="text;strokeColor=none;fillColor=none;align=left;verticalAlign=middle;spacingLeft=4;spacingRight=4;overflow=hidden;points=[[0,0.5],[1,0.5]];portConstraint=eastwest;rotatable=0;whiteSpace=wrap;html=1;" vertex="1" parent="N1zZDSGnp2hzUXf2zIer-9">
          <mxGeometry y="420" width="140" height="70" as="geometry" />
        </mxCell>
        <mxCell id="N1zZDSGnp2hzUXf2zIer-13" value="Customer" style="swimlane;fontStyle=0;childLayout=stackLayout;horizontal=1;startSize=30;horizontalStack=0;resizeParent=1;resizeParentMax=0;resizeLast=0;collapsible=1;marginBottom=0;whiteSpace=wrap;html=1;" parent="1" vertex="1">
          <mxGeometry x="1100" y="-505" width="140" height="60" as="geometry" />
        </mxCell>
        <mxCell id="N1zZDSGnp2hzUXf2zIer-14" value="&lt;u&gt;customerId&lt;/u&gt;" style="text;strokeColor=none;fillColor=none;align=left;verticalAlign=middle;spacingLeft=4;spacingRight=4;overflow=hidden;points=[[0,0.5],[1,0.5]];portConstraint=eastwest;rotatable=0;whiteSpace=wrap;html=1;" parent="N1zZDSGnp2hzUXf2zIer-13" vertex="1">
          <mxGeometry y="30" width="140" height="30" as="geometry" />
        </mxCell>
        <mxCell id="N1zZDSGnp2hzUXf2zIer-21" value="Receipt" style="swimlane;fontStyle=0;childLayout=stackLayout;horizontal=1;startSize=30;horizontalStack=0;resizeParent=1;resizeParentMax=0;resizeLast=0;collapsible=1;marginBottom=0;whiteSpace=wrap;html=1;" parent="1" vertex="1">
          <mxGeometry x="670" y="-690" width="140" height="240" as="geometry" />
        </mxCell>
        <mxCell id="N1zZDSGnp2hzUXf2zIer-22" value="&lt;u&gt;receiptId&amp;nbsp;&lt;/u&gt;" style="text;strokeColor=none;fillColor=none;align=left;verticalAlign=middle;spacingLeft=4;spacingRight=4;overflow=hidden;points=[[0,0.5],[1,0.5]];portConstraint=eastwest;rotatable=0;whiteSpace=wrap;html=1;" parent="N1zZDSGnp2hzUXf2zIer-21" vertex="1">
          <mxGeometry y="30" width="140" height="30" as="geometry" />
        </mxCell>
        <mxCell id="qZLmWWEaJiym7y35f2Qr-52" value="customerId" style="text;strokeColor=none;fillColor=none;align=left;verticalAlign=middle;spacingLeft=4;spacingRight=4;overflow=hidden;points=[[0,0.5],[1,0.5]];portConstraint=eastwest;rotatable=0;whiteSpace=wrap;html=1;" vertex="1" parent="N1zZDSGnp2hzUXf2zIer-21">
          <mxGeometry y="60" width="140" height="30" as="geometry" />
        </mxCell>
        <mxCell id="N1zZDSGnp2hzUXf2zIer-23" value="date" style="text;strokeColor=none;fillColor=none;align=left;verticalAlign=middle;spacingLeft=4;spacingRight=4;overflow=hidden;points=[[0,0.5],[1,0.5]];portConstraint=eastwest;rotatable=0;whiteSpace=wrap;html=1;" parent="N1zZDSGnp2hzUXf2zIer-21" vertex="1">
          <mxGeometry y="90" width="140" height="30" as="geometry" />
        </mxCell>
        <mxCell id="N1zZDSGnp2hzUXf2zIer-24" value="&lt;p class=&quot;MsoNormal&quot;&gt;{itemId}&lt;/p&gt;" style="text;strokeColor=none;fillColor=none;align=left;verticalAlign=middle;spacingLeft=4;spacingRight=4;overflow=hidden;points=[[0,0.5],[1,0.5]];portConstraint=eastwest;rotatable=0;whiteSpace=wrap;html=1;" parent="N1zZDSGnp2hzUXf2zIer-21" vertex="1">
          <mxGeometry y="120" width="140" height="40" as="geometry" />
        </mxCell>
        <mxCell id="qZLmWWEaJiym7y35f2Qr-44" value="&lt;p class=&quot;MsoNormal&quot;&gt;{documents}&lt;/p&gt;" style="text;strokeColor=none;fillColor=none;align=left;verticalAlign=middle;spacingLeft=4;spacingRight=4;overflow=hidden;points=[[0,0.5],[1,0.5]];portConstraint=eastwest;rotatable=0;whiteSpace=wrap;html=1;" vertex="1" parent="N1zZDSGnp2hzUXf2zIer-21">
          <mxGeometry y="160" width="140" height="40" as="geometry" />
        </mxCell>
        <mxCell id="qZLmWWEaJiym7y35f2Qr-23" value="&lt;p class=&quot;MsoNormal&quot;&gt;[totalPrice]&lt;/p&gt;" style="text;strokeColor=none;fillColor=none;align=left;verticalAlign=middle;spacingLeft=4;spacingRight=4;overflow=hidden;points=[[0,0.5],[1,0.5]];portConstraint=eastwest;rotatable=0;whiteSpace=wrap;html=1;" vertex="1" parent="N1zZDSGnp2hzUXf2zIer-21">
          <mxGeometry y="200" width="140" height="40" as="geometry" />
        </mxCell>
        <mxCell id="N1zZDSGnp2hzUXf2zIer-25" value="" style="shape=link;html=1;rounded=0;width=16;" parent="1" edge="1">
          <mxGeometry width="100" relative="1" as="geometry">
            <mxPoint x="343.25" y="-510" as="sourcePoint" />
            <mxPoint x="343.25" y="-430" as="targetPoint" />
          </mxGeometry>
        </mxCell>
        <mxCell id="N1zZDSGnp2hzUXf2zIer-33" value="Manager" style="swimlane;fontStyle=0;childLayout=stackLayout;horizontal=1;startSize=30;horizontalStack=0;resizeParent=1;resizeParentMax=0;resizeLast=0;collapsible=1;marginBottom=0;whiteSpace=wrap;html=1;strokeColor=default;align=center;verticalAlign=middle;fontFamily=Helvetica;fontSize=12;fontColor=default;fillColor=default;" parent="1" vertex="1">
          <mxGeometry x="180" y="-320" width="140" height="80" as="geometry" />
        </mxCell>
        <mxCell id="N1zZDSGnp2hzUXf2zIer-34" value="&lt;p class=&quot;MsoNormal&quot;&gt;{employeeId}&lt;b&gt;&lt;/b&gt;&lt;/p&gt;" style="text;strokeColor=none;fillColor=none;align=left;verticalAlign=middle;spacingLeft=4;spacingRight=4;overflow=hidden;points=[[0,0.5],[1,0.5]];portConstraint=eastwest;rotatable=0;whiteSpace=wrap;html=1;fontSize=12;fontFamily=Helvetica;fontColor=default;" parent="N1zZDSGnp2hzUXf2zIer-33" vertex="1">
          <mxGeometry y="30" width="140" height="50" as="geometry" />
        </mxCell>
        <mxCell id="N1zZDSGnp2hzUXf2zIer-37" value="Sales Employee" style="swimlane;fontStyle=0;childLayout=stackLayout;horizontal=1;startSize=30;horizontalStack=0;resizeParent=1;resizeParentMax=0;resizeLast=0;collapsible=1;marginBottom=0;whiteSpace=wrap;html=1;strokeColor=default;align=center;verticalAlign=middle;fontFamily=Helvetica;fontSize=12;fontColor=default;fillColor=default;" parent="1" vertex="1">
          <mxGeometry x="353.75" y="-320" width="140" height="80" as="geometry" />
        </mxCell>
        <mxCell id="N1zZDSGnp2hzUXf2zIer-38" value="&lt;p class=&quot;MsoNormal&quot;&gt;{receipts}&lt;/p&gt;" style="text;strokeColor=none;fillColor=none;align=left;verticalAlign=middle;spacingLeft=4;spacingRight=4;overflow=hidden;points=[[0,0.5],[1,0.5]];portConstraint=eastwest;rotatable=0;whiteSpace=wrap;html=1;fontSize=12;fontFamily=Helvetica;fontColor=default;" parent="N1zZDSGnp2hzUXf2zIer-37" vertex="1">
          <mxGeometry y="30" width="140" height="50" as="geometry" />
        </mxCell>
        <mxCell id="N1zZDSGnp2hzUXf2zIer-63" value="Product" style="swimlane;fontStyle=0;childLayout=stackLayout;horizontal=1;startSize=30;horizontalStack=0;resizeParent=1;resizeParentMax=0;resizeLast=0;collapsible=1;marginBottom=0;whiteSpace=wrap;html=1;strokeColor=default;align=center;verticalAlign=middle;fontFamily=Helvetica;fontSize=12;fontColor=default;fillColor=default;" parent="1" vertex="1">
          <mxGeometry x="810" y="-990" width="140" height="250" as="geometry" />
        </mxCell>
        <mxCell id="N1zZDSGnp2hzUXf2zIer-64" value="&lt;u&gt;productId&lt;/u&gt;" style="text;strokeColor=none;fillColor=none;align=left;verticalAlign=middle;spacingLeft=4;spacingRight=4;overflow=hidden;points=[[0,0.5],[1,0.5]];portConstraint=eastwest;rotatable=0;whiteSpace=wrap;html=1;fontSize=12;fontFamily=Helvetica;fontColor=default;" parent="N1zZDSGnp2hzUXf2zIer-63" vertex="1">
          <mxGeometry y="30" width="140" height="30" as="geometry" />
        </mxCell>
        <mxCell id="N1zZDSGnp2hzUXf2zIer-65" value="name" style="text;strokeColor=none;fillColor=none;align=left;verticalAlign=middle;spacingLeft=4;spacingRight=4;overflow=hidden;points=[[0,0.5],[1,0.5]];portConstraint=eastwest;rotatable=0;whiteSpace=wrap;html=1;fontSize=12;fontFamily=Helvetica;fontColor=default;" parent="N1zZDSGnp2hzUXf2zIer-63" vertex="1">
          <mxGeometry y="60" width="140" height="30" as="geometry" />
        </mxCell>
        <mxCell id="N1zZDSGnp2hzUXf2zIer-66" value="price" style="text;strokeColor=none;fillColor=none;align=left;verticalAlign=middle;spacingLeft=4;spacingRight=4;overflow=hidden;points=[[0,0.5],[1,0.5]];portConstraint=eastwest;rotatable=0;whiteSpace=wrap;html=1;fontSize=12;fontFamily=Helvetica;fontColor=default;" parent="N1zZDSGnp2hzUXf2zIer-63" vertex="1">
          <mxGeometry y="90" width="140" height="30" as="geometry" />
        </mxCell>
        <mxCell id="qZLmWWEaJiym7y35f2Qr-22" value="sellingPrice" style="text;strokeColor=none;fillColor=none;align=left;verticalAlign=middle;spacingLeft=4;spacingRight=4;overflow=hidden;points=[[0,0.5],[1,0.5]];portConstraint=eastwest;rotatable=0;whiteSpace=wrap;html=1;fontSize=12;fontFamily=Helvetica;fontColor=default;" vertex="1" parent="N1zZDSGnp2hzUXf2zIer-63">
          <mxGeometry y="120" width="140" height="30" as="geometry" />
        </mxCell>
        <mxCell id="qZLmWWEaJiym7y35f2Qr-20" value="arrivalPrice" style="text;strokeColor=none;fillColor=none;align=left;verticalAlign=middle;spacingLeft=4;spacingRight=4;overflow=hidden;points=[[0,0.5],[1,0.5]];portConstraint=eastwest;rotatable=0;whiteSpace=wrap;html=1;fontSize=12;fontFamily=Helvetica;fontColor=default;" vertex="1" parent="N1zZDSGnp2hzUXf2zIer-63">
          <mxGeometry y="150" width="140" height="30" as="geometry" />
        </mxCell>
        <mxCell id="N1zZDSGnp2hzUXf2zIer-75" value="{category}" style="text;strokeColor=none;fillColor=none;align=left;verticalAlign=middle;spacingLeft=4;spacingRight=4;overflow=hidden;points=[[0,0.5],[1,0.5]];portConstraint=eastwest;rotatable=0;whiteSpace=wrap;html=1;fontSize=12;fontFamily=Helvetica;fontColor=default;" parent="N1zZDSGnp2hzUXf2zIer-63" vertex="1">
          <mxGeometry y="180" width="140" height="30" as="geometry" />
        </mxCell>
        <mxCell id="qZLmWWEaJiym7y35f2Qr-21" value="&lt;p class=&quot;MsoNormal&quot;&gt;{itemId}&lt;/p&gt;" style="text;strokeColor=none;fillColor=none;align=left;verticalAlign=middle;spacingLeft=4;spacingRight=4;overflow=hidden;points=[[0,0.5],[1,0.5]];portConstraint=eastwest;rotatable=0;whiteSpace=wrap;html=1;fontSize=12;fontFamily=Helvetica;fontColor=default;" vertex="1" parent="N1zZDSGnp2hzUXf2zIer-63">
          <mxGeometry y="210" width="140" height="40" as="geometry" />
        </mxCell>
        <mxCell id="qZLmWWEaJiym7y35f2Qr-11" value="" style="endArrow=none;html=1;rounded=0;exitX=0.5;exitY=0;exitDx=0;exitDy=0;" edge="1" parent="1" source="N1zZDSGnp2hzUXf2zIer-33">
          <mxGeometry width="50" height="50" relative="1" as="geometry">
            <mxPoint x="263.75" y="-312.5" as="sourcePoint" />
            <mxPoint x="331.8581081081081" y="-382.5" as="targetPoint" />
          </mxGeometry>
        </mxCell>
        <mxCell id="qZLmWWEaJiym7y35f2Qr-15" value="" style="endArrow=none;html=1;rounded=0;exitX=0.5;exitY=0;exitDx=0;exitDy=0;" edge="1" parent="1" source="N1zZDSGnp2hzUXf2zIer-37">
          <mxGeometry width="50" height="50" relative="1" as="geometry">
            <mxPoint x="378.75" y="-340" as="sourcePoint" />
            <mxPoint x="353.75" y="-390" as="targetPoint" />
          </mxGeometry>
        </mxCell>
        <mxCell id="N1zZDSGnp2hzUXf2zIer-29" value="" style="ellipse;whiteSpace=wrap;html=1;" parent="1" vertex="1">
          <mxGeometry x="320" y="-430" width="47.5" height="50" as="geometry" />
        </mxCell>
        <mxCell id="N1zZDSGnp2hzUXf2zIer-42" value="d" style="text;html=1;strokeColor=none;fillColor=none;align=center;verticalAlign=middle;whiteSpace=wrap;rounded=0;fontSize=20;fontFamily=Helvetica;fontColor=default;" parent="1" vertex="1">
          <mxGeometry x="308.75" y="-427.5" width="70" height="45" as="geometry" />
        </mxCell>
        <mxCell id="qZLmWWEaJiym7y35f2Qr-24" value="Registered Customer" style="swimlane;fontStyle=0;childLayout=stackLayout;horizontal=1;startSize=30;horizontalStack=0;resizeParent=1;resizeParentMax=0;resizeLast=0;collapsible=1;marginBottom=0;whiteSpace=wrap;html=1;strokeColor=default;align=center;verticalAlign=middle;fontFamily=Helvetica;fontSize=12;fontColor=default;fillColor=default;" vertex="1" parent="1">
          <mxGeometry x="1010" y="-265" width="140" height="230" as="geometry" />
        </mxCell>
        <mxCell id="qZLmWWEaJiym7y35f2Qr-25" value="name" style="text;strokeColor=none;fillColor=none;align=left;verticalAlign=middle;spacingLeft=4;spacingRight=4;overflow=hidden;points=[[0,0.5],[1,0.5]];portConstraint=eastwest;rotatable=0;whiteSpace=wrap;html=1;fontSize=12;fontFamily=Helvetica;fontColor=default;" vertex="1" parent="qZLmWWEaJiym7y35f2Qr-24">
          <mxGeometry y="30" width="140" height="40" as="geometry" />
        </mxCell>
        <mxCell id="qZLmWWEaJiym7y35f2Qr-36" value="surname" style="text;strokeColor=none;fillColor=none;align=left;verticalAlign=middle;spacingLeft=4;spacingRight=4;overflow=hidden;points=[[0,0.5],[1,0.5]];portConstraint=eastwest;rotatable=0;whiteSpace=wrap;html=1;fontSize=12;fontFamily=Helvetica;fontColor=default;" vertex="1" parent="qZLmWWEaJiym7y35f2Qr-24">
          <mxGeometry y="70" width="140" height="40" as="geometry" />
        </mxCell>
        <mxCell id="qZLmWWEaJiym7y35f2Qr-37" value="phoneNumber&amp;nbsp;" style="text;strokeColor=none;fillColor=none;align=left;verticalAlign=middle;spacingLeft=4;spacingRight=4;overflow=hidden;points=[[0,0.5],[1,0.5]];portConstraint=eastwest;rotatable=0;whiteSpace=wrap;html=1;fontSize=12;fontFamily=Helvetica;fontColor=default;" vertex="1" parent="qZLmWWEaJiym7y35f2Qr-24">
          <mxGeometry y="110" width="140" height="40" as="geometry" />
        </mxCell>
        <mxCell id="qZLmWWEaJiym7y35f2Qr-38" value="&lt;p class=&quot;MsoNormal&quot;&gt;{address}&lt;/p&gt;" style="text;strokeColor=none;fillColor=none;align=left;verticalAlign=middle;spacingLeft=4;spacingRight=4;overflow=hidden;points=[[0,0.5],[1,0.5]];portConstraint=eastwest;rotatable=0;whiteSpace=wrap;html=1;fontSize=12;fontFamily=Helvetica;fontColor=default;" vertex="1" parent="qZLmWWEaJiym7y35f2Qr-24">
          <mxGeometry y="150" width="140" height="40" as="geometry" />
        </mxCell>
        <mxCell id="qZLmWWEaJiym7y35f2Qr-39" value="&lt;p class=&quot;MsoNormal&quot;&gt;{receipts}&lt;/p&gt;" style="text;strokeColor=none;fillColor=none;align=left;verticalAlign=middle;spacingLeft=4;spacingRight=4;overflow=hidden;points=[[0,0.5],[1,0.5]];portConstraint=eastwest;rotatable=0;whiteSpace=wrap;html=1;fontSize=12;fontFamily=Helvetica;fontColor=default;" vertex="1" parent="qZLmWWEaJiym7y35f2Qr-24">
          <mxGeometry y="190" width="140" height="40" as="geometry" />
        </mxCell>
        <mxCell id="qZLmWWEaJiym7y35f2Qr-26" value="Unregistered Customer" style="swimlane;fontStyle=0;childLayout=stackLayout;horizontal=1;startSize=30;horizontalStack=0;resizeParent=1;resizeParentMax=0;resizeLast=0;collapsible=1;marginBottom=0;whiteSpace=wrap;html=1;strokeColor=default;align=center;verticalAlign=middle;fontFamily=Helvetica;fontSize=12;fontColor=default;fillColor=default;" vertex="1" parent="1">
          <mxGeometry x="1183.75" y="-265" width="156.25" height="70" as="geometry" />
        </mxCell>
        <mxCell id="qZLmWWEaJiym7y35f2Qr-27" value="&lt;p class=&quot;MsoNormal&quot;&gt;receipt&lt;/p&gt;" style="text;strokeColor=none;fillColor=none;align=left;verticalAlign=middle;spacingLeft=4;spacingRight=4;overflow=hidden;points=[[0,0.5],[1,0.5]];portConstraint=eastwest;rotatable=0;whiteSpace=wrap;html=1;fontSize=12;fontFamily=Helvetica;fontColor=default;" vertex="1" parent="qZLmWWEaJiym7y35f2Qr-26">
          <mxGeometry y="30" width="156.25" height="40" as="geometry" />
        </mxCell>
        <mxCell id="qZLmWWEaJiym7y35f2Qr-29" value="" style="endArrow=none;html=1;rounded=0;exitX=0.5;exitY=0;exitDx=0;exitDy=0;" edge="1" parent="1" source="qZLmWWEaJiym7y35f2Qr-24">
          <mxGeometry width="50" height="50" relative="1" as="geometry">
            <mxPoint x="1093.75" y="-257.5" as="sourcePoint" />
            <mxPoint x="1161.8581081081081" y="-327.5" as="targetPoint" />
          </mxGeometry>
        </mxCell>
        <mxCell id="qZLmWWEaJiym7y35f2Qr-30" value="" style="endArrow=none;html=1;rounded=0;exitX=0.5;exitY=0;exitDx=0;exitDy=0;" edge="1" parent="1" source="qZLmWWEaJiym7y35f2Qr-26">
          <mxGeometry width="50" height="50" relative="1" as="geometry">
            <mxPoint x="1208.75" y="-285" as="sourcePoint" />
            <mxPoint x="1183.75" y="-335" as="targetPoint" />
          </mxGeometry>
        </mxCell>
        <mxCell id="qZLmWWEaJiym7y35f2Qr-34" value="" style="shape=link;html=1;rounded=0;width=16;" edge="1" parent="1">
          <mxGeometry width="100" relative="1" as="geometry">
            <mxPoint x="1173.25" y="-445" as="sourcePoint" />
            <mxPoint x="1173.25" y="-365" as="targetPoint" />
          </mxGeometry>
        </mxCell>
        <mxCell id="qZLmWWEaJiym7y35f2Qr-31" value="" style="ellipse;whiteSpace=wrap;html=1;" vertex="1" parent="1">
          <mxGeometry x="1150" y="-375" width="47.5" height="50" as="geometry" />
        </mxCell>
        <mxCell id="qZLmWWEaJiym7y35f2Qr-32" value="d" style="text;html=1;strokeColor=none;fillColor=none;align=center;verticalAlign=middle;whiteSpace=wrap;rounded=0;fontSize=20;fontFamily=Helvetica;fontColor=default;" vertex="1" parent="1">
          <mxGeometry x="1138.75" y="-372.5" width="70" height="45" as="geometry" />
        </mxCell>
        <mxCell id="qZLmWWEaJiym7y35f2Qr-40" value="Print Order&amp;nbsp;" style="swimlane;fontStyle=0;childLayout=stackLayout;horizontal=1;startSize=30;horizontalStack=0;resizeParent=1;resizeParentMax=0;resizeLast=0;collapsible=1;marginBottom=0;whiteSpace=wrap;html=1;" vertex="1" parent="1">
          <mxGeometry x="1400" y="-760" width="140" height="130" as="geometry" />
        </mxCell>
        <mxCell id="qZLmWWEaJiym7y35f2Qr-41" value="&lt;u&gt;printOrderId&lt;/u&gt;" style="text;strokeColor=none;fillColor=none;align=left;verticalAlign=middle;spacingLeft=4;spacingRight=4;overflow=hidden;points=[[0,0.5],[1,0.5]];portConstraint=eastwest;rotatable=0;whiteSpace=wrap;html=1;" vertex="1" parent="qZLmWWEaJiym7y35f2Qr-40">
          <mxGeometry y="30" width="140" height="30" as="geometry" />
        </mxCell>
        <mxCell id="qZLmWWEaJiym7y35f2Qr-42" value="&lt;p class=&quot;MsoNormal&quot;&gt;{documentId}&lt;/p&gt;" style="text;strokeColor=none;fillColor=none;align=left;verticalAlign=middle;spacingLeft=4;spacingRight=4;overflow=hidden;points=[[0,0.5],[1,0.5]];portConstraint=eastwest;rotatable=0;whiteSpace=wrap;html=1;" vertex="1" parent="qZLmWWEaJiym7y35f2Qr-40">
          <mxGeometry y="60" width="140" height="40" as="geometry" />
        </mxCell>
        <mxCell id="qZLmWWEaJiym7y35f2Qr-43" value="[price]&amp;nbsp;" style="text;strokeColor=none;fillColor=none;align=left;verticalAlign=middle;spacingLeft=4;spacingRight=4;overflow=hidden;points=[[0,0.5],[1,0.5]];portConstraint=eastwest;rotatable=0;whiteSpace=wrap;html=1;" vertex="1" parent="qZLmWWEaJiym7y35f2Qr-40">
          <mxGeometry y="100" width="140" height="30" as="geometry" />
        </mxCell>
        <mxCell id="qZLmWWEaJiym7y35f2Qr-45" value="Document&amp;nbsp;" style="swimlane;fontStyle=0;childLayout=stackLayout;horizontal=1;startSize=30;horizontalStack=0;resizeParent=1;resizeParentMax=0;resizeLast=0;collapsible=1;marginBottom=0;whiteSpace=wrap;html=1;" vertex="1" parent="1">
          <mxGeometry x="1103.75" y="-750" width="140" height="90" as="geometry" />
        </mxCell>
        <mxCell id="qZLmWWEaJiym7y35f2Qr-46" value="&lt;u&gt;documentId&lt;/u&gt;" style="text;strokeColor=none;fillColor=none;align=left;verticalAlign=middle;spacingLeft=4;spacingRight=4;overflow=hidden;points=[[0,0.5],[1,0.5]];portConstraint=eastwest;rotatable=0;whiteSpace=wrap;html=1;" vertex="1" parent="qZLmWWEaJiym7y35f2Qr-45">
          <mxGeometry y="30" width="140" height="30" as="geometry" />
        </mxCell>
        <mxCell id="qZLmWWEaJiym7y35f2Qr-47" value="content" style="text;strokeColor=none;fillColor=none;align=left;verticalAlign=middle;spacingLeft=4;spacingRight=4;overflow=hidden;points=[[0,0.5],[1,0.5]];portConstraint=eastwest;rotatable=0;whiteSpace=wrap;html=1;" vertex="1" parent="qZLmWWEaJiym7y35f2Qr-45">
          <mxGeometry y="60" width="140" height="30" as="geometry" />
        </mxCell>
        <mxCell id="qZLmWWEaJiym7y35f2Qr-50" value="" style="edgeStyle=entityRelationEdgeStyle;fontSize=12;html=1;endArrow=ERzeroToMany;startArrow=ERmandOne;rounded=0;entryX=1;entryY=0.5;entryDx=0;entryDy=0;exitX=0;exitY=0.5;exitDx=0;exitDy=0;" edge="1" parent="1" source="qZLmWWEaJiym7y35f2Qr-22" target="N1zZDSGnp2hzUXf2zIer-8">
          <mxGeometry width="100" height="100" relative="1" as="geometry">
            <mxPoint x="680" y="-790" as="sourcePoint" />
            <mxPoint x="780" y="-890" as="targetPoint" />
          </mxGeometry>
        </mxCell>
        <mxCell id="qZLmWWEaJiym7y35f2Qr-53" value="" style="fontSize=12;html=1;endArrow=ERzeroToMany;startArrow=ERzeroToOne;rounded=0;exitX=0;exitY=0.25;exitDx=0;exitDy=0;exitPerimeter=0;edgeStyle=orthogonalEdgeStyle;" edge="1" parent="1" source="N1zZDSGnp2hzUXf2zIer-24">
          <mxGeometry width="100" height="100" relative="1" as="geometry">
            <mxPoint x="565" y="-442.70000000000005" as="sourcePoint" />
            <mxPoint x="620" y="-760" as="targetPoint" />
          </mxGeometry>
        </mxCell>
        <mxCell id="qZLmWWEaJiym7y35f2Qr-55" value="" style="fontSize=12;html=1;endArrow=ERzeroToMany;startArrow=ERmandOne;rounded=0;entryX=1;entryY=0.5;entryDx=0;entryDy=0;" edge="1" parent="1" source="qZLmWWEaJiym7y35f2Qr-42" target="qZLmWWEaJiym7y35f2Qr-47">
          <mxGeometry width="100" height="100" relative="1" as="geometry">
            <mxPoint x="1400" y="-680" as="sourcePoint" />
            <mxPoint x="1410" y="-860" as="targetPoint" />
          </mxGeometry>
        </mxCell>
        <mxCell id="qZLmWWEaJiym7y35f2Qr-56" value="" style="edgeStyle=orthogonalEdgeStyle;fontSize=12;html=1;endArrow=ERoneToMany;startArrow=ERmandOne;rounded=0;" edge="1" parent="1" source="N1zZDSGnp2hzUXf2zIer-34" target="N1zZDSGnp2hzUXf2zIer-38">
          <mxGeometry width="100" height="100" relative="1" as="geometry">
            <mxPoint x="222" y="-170" as="sourcePoint" />
            <mxPoint x="420" y="-240" as="targetPoint" />
            <Array as="points">
              <mxPoint x="237" y="-190" />
              <mxPoint x="420" y="-190" />
            </Array>
          </mxGeometry>
        </mxCell>
        <mxCell id="qZLmWWEaJiym7y35f2Qr-59" value="" style="fontSize=12;html=1;endArrow=ERoneToMany;startArrow=ERmandOne;rounded=0;exitX=0;exitY=0.5;exitDx=0;exitDy=0;" edge="1" parent="1" source="N1zZDSGnp2hzUXf2zIer-14" target="qZLmWWEaJiym7y35f2Qr-23">
          <mxGeometry width="100" height="100" relative="1" as="geometry">
            <mxPoint x="900" y="-470" as="sourcePoint" />
            <mxPoint x="840" y="-520" as="targetPoint" />
          </mxGeometry>
        </mxCell>
        <mxCell id="qZLmWWEaJiym7y35f2Qr-62" value="" style="fontSize=12;html=1;endArrow=ERzeroToMany;startArrow=ERzeroToOne;rounded=0;exitX=1;exitY=0.5;exitDx=0;exitDy=0;entryX=0;entryY=0.5;entryDx=0;entryDy=0;edgeStyle=elbowEdgeStyle;" edge="1" parent="1" source="N1zZDSGnp2hzUXf2zIer-24" target="qZLmWWEaJiym7y35f2Qr-47">
          <mxGeometry width="100" height="100" relative="1" as="geometry">
            <mxPoint x="990" y="-505.47" as="sourcePoint" />
            <mxPoint x="940" y="-705.47" as="targetPoint" />
          </mxGeometry>
        </mxCell>
        <mxCell id="qZLmWWEaJiym7y35f2Qr-67" value="" style="edgeStyle=entityRelationEdgeStyle;fontSize=12;html=1;endArrow=ERoneToMany;startArrow=ERmandOne;rounded=0;entryX=-0.017;entryY=-0.117;entryDx=0;entryDy=0;entryPerimeter=0;" edge="1" parent="1" target="qZLmWWEaJiym7y35f2Qr-23">
          <mxGeometry width="100" height="100" relative="1" as="geometry">
            <mxPoint x="493.75" y="-275" as="sourcePoint" />
            <mxPoint x="593.75" y="-375" as="targetPoint" />
          </mxGeometry>
        </mxCell>
      </root>
    </mxGraphModel>
  </diagram>
</mxfile>
